<?xml version="1.0" encoding="utf-8"?>
<svg viewBox="67.695 4.497 35.975 26.982" xmlns="http://www.w3.org/2000/svg">
  <g style="" transform="matrix(0.9999999999999999, 0, 0, 0.9999999999999999, 0, 0)">
    <path d="M 74.166 26.791 C 77.149 27.873 79.48 24.228 77.383 21.954 C 77.87 24.558 76.359 26.325 74.166 26.791 Z" style="stroke: rgb(97, 135, 159); stroke-width: 0px; fill: rgb(97, 135, 159);"/>
    <path d="M 98.371 21.954 C 100.467 24.226 98.137 27.873 95.154 26.791 C 97.346 26.325 98.371 21.954 98.371 21.954 Z" style="stroke: rgb(97, 135, 159); stroke-width: 0px; fill: rgb(97, 135, 159);"/>
    <path d="M 81.185 4.497 C 79.895 4.497 78.804 5.319 78.381 6.464 C 80.523 6.716 82.374 7.775 84.039 8.367 C 84.653 6.362 83.131 4.497 81.185 4.497 Z" style="stroke: rgb(97, 135, 159); stroke-width: 0px; fill: rgb(97, 135, 159);"/>
    <path d="M 92.984 6.464 C 92.561 5.319 91.47 4.497 90.179 4.497 C 88.234 4.497 86.712 6.362 87.325 8.367 C 88.991 7.775 90.842 6.714 92.984 6.464 Z" style="stroke: rgb(97, 135, 159); stroke-width: 0px; fill: rgb(97, 135, 159);"/>
    <path d="M 103.67 23.984 C 103.67 28.122 100.315 31.479 96.175 31.479 C 90.121 31.479 89.945 25.298000000000002 85.682 25.298000000000002 C 81.419 25.298000000000002 81.244 31.479 75.19 31.479 C 71.049 31.479 67.695 28.122 67.695 23.984 C 67.695 20.783 69.996 17.138 73.602 10.761 C 76.462 5.707 80.728 8.873 83.818 9.884 C 84.988 10.268 86.297 10.292 87.544 9.884 C 90.635 8.874 94.901 5.707 97.759 10.761 C 101.369 17.138 103.67 20.783 103.67 23.984 Z M 79.686 23.984 C 79.686 21.504 77.669 19.487 75.19 19.487 C 72.71 19.487 70.693 21.504 70.693 23.984 C 70.693 26.463 72.71 28.481 75.19 28.481 C 77.669 28.481 79.686 26.463 79.686 23.984 Z M 87.181 20.986 C 87.181 20.158 86.511 19.487 85.682 19.487 C 84.853 19.487 84.183 20.158 84.183 20.986 C 84.183 21.813 84.853 22.485 85.682 22.485 C 86.511 22.485 87.181 21.813 87.181 20.986 Z M 100.672 23.984 C 100.672 21.504 98.654 19.487 96.175 19.487 C 93.696 19.487 91.678 21.504 91.678 23.984 C 91.678 26.463 93.696 28.481 96.175 28.481 C 98.654 28.481 100.672 26.463 100.672 23.984 Z" style="fill: rgb(164, 34, 34); stroke: rgb(97, 135, 159); stroke-width: 0px;"/>
  </g>
  <g transform="matrix(0.19225099682807922, 0, 0, 0.19225099682807922, 86.72191619873047, 13.277936935424803)" style="">
    <path d="M 0.483 12.511 C 0.499 12.527 0.514 12.542 0.53 12.558 C 2.617 14.59 5.956 14.574 8.024 12.511 C 10.103 10.427 10.103 7.053 8.024 4.969 C 5.956 2.905 2.617 2.889 0.529 4.922 C 0.514 4.938 0.499 4.953 0.483 4.969 C 0.468 4.984 0.452 4.999 0.437 5.015 C -1.581 7.088 -1.581 10.394 0.438 12.466 C 0.453 12.481 0.468 12.496 0.483 12.511 Z M -3.394 5.445 C -3.644 6.027 -3.827 6.638 -3.938 7.269 C -3.937 7.269 -3.937 7.269 -3.937 7.269 C -3.825 6.632 -3.641 6.022 -3.394 5.445 Z M -6.878 7.269 C -7.893 7.091 -8.86 6.725 -9.732 6.197 C -8.86 6.726 -7.893 7.091 -6.878 7.27 Z M -11.298 4.969 C -11.637 4.605 -11.774 4.095 -11.662 3.61 C -11.402 2.485 -10.022 2.062 -9.178 2.849 C -9.163 2.864 -9.148 2.879 -9.133 2.894 C -7.064 4.91 -3.768 4.914 -1.695 2.908 C -1.561 2.771 -1.422 2.639 -1.278 2.511 C -1.401 2.62 -1.521 2.733 -1.637 2.849 C 0.443 0.766 0.443 -2.608 -1.637 -4.692 C -3.72 -6.772 -7.095 -6.772 -9.179 -4.692 C -9.546 -4.346 -10.062 -4.208 -10.553 -4.324 C -11.675 -4.591 -12.089 -5.973 -11.297 -6.812 C -8.05 -10.06 -2.765 -10.06 0.483 -6.812 L 0.484 -6.812 C 2.41 -4.883 3.269 -2.133 2.784 0.549 C 5.466 0.064 8.215 0.923 10.144 2.849 C 13.392 6.097 13.392 11.382 10.144 14.63 C 8.215 16.556 5.466 17.415 2.784 16.931 C 1.11 16.637 -0.434 15.833 -1.636 14.63 C -1.919 14.348 -2.179 14.047 -2.417 13.729 C -2.18 14.047 -1.919 14.348 -1.637 14.63 C -3.706 12.567 -7.044 12.552 -9.133 14.584 C -9.148 14.6 -9.163 14.615 -9.179 14.631 C -9.195 14.647 -9.21 14.662 -9.226 14.678 C -11.258 16.765 -11.242 20.105 -9.179 22.172 C -7.094 24.252 -3.72 24.252 -1.636 22.172 C 0.444 20.088 0.444 16.714 -1.636 14.63 C -0.434 15.834 1.11 16.637 2.784 16.932 C 3.269 19.615 2.409 22.364 0.482 24.292 C -2.765 27.54 -8.05 27.539 -11.298 24.292 C -13.224 22.364 -14.083 19.614 -13.599 16.932 C -12.762 16.785 -11.957 16.51 -11.211 16.122 C -11.957 16.51 -12.762 16.784 -13.599 16.931 C -13.304 15.256 -12.5 13.713 -11.297 12.511 C -10.095 11.309 -8.551 10.505 -6.877 10.21 C -5.904 10.037 -4.91 10.037 -3.938 10.21 L -3.938 10.209 C -4.11 9.237 -4.11 8.243 -3.938 7.27 C -4.91 7.443 -5.904 7.443 -6.877 7.27 C -6.704 8.243 -6.704 9.238 -6.877 10.21 C -8.551 10.505 -10.095 11.308 -11.297 12.511 C -9.233 10.442 -9.218 7.102 -11.253 5.014 C -11.268 4.999 -11.283 4.984 -11.298 4.969 Z M -18.84 12.511 C -16.755 14.59 -13.382 14.59 -11.298 12.511 C -12.501 13.713 -13.305 15.256 -13.6 16.931 C -16.191 17.393 -18.96 16.63 -20.96 14.63 C -24.207 11.382 -24.207 6.097 -20.96 2.849 C -20.581 2.471 -20.029 2.323 -19.512 2.461 C -18.397 2.76 -18.024 4.153 -18.84 4.969 C -20.918 7.054 -20.918 10.427 -18.84 12.511 Z" style="fill: rgb(255, 255, 255); stroke-width: 0px;"/>
  </g>
</svg>