<?xml version="1.0" encoding="utf-8"?>
<svg viewBox="67.6947 0 35.9752 35.9756" xmlns="http://www.w3.org/2000/svg">
  <g transform="matrix(1, 0, 0, 1, 91.08999633789062, 9.248000144958494)">
    <mask id="b" fill="#fff">
      <path d="M.482.418h12.097v16.644H.482z"/>
    </mask>
    <path d="M8.024 4.969a5.34 5.34 0 010 7.542 5.34 5.34 0 01-7.542 0 8.277 8.277 0 012.302 4.42 8.323 8.323 0 007.36-2.301c3.248-3.248 3.248-8.533 0-11.781a8.321 8.321 0 00-7.36-2.3 8.284 8.284 0 01-2.302 4.42 5.338 5.338 0 017.542 0" fill="#A42222" mask="url(#b)"/>
  </g>
  <path d="M87.152 19.458a8.278 8.278 0 014.42 2.301 5.34 5.34 0 010-7.542 8.275 8.275 0 01-4.42 2.3 8.396 8.396 0 000 2.94" fill="#A42222"/>
  <path d="M84.213 19.458a8.278 8.278 0 01-2.302 4.42 5.34 5.34 0 017.542 0 8.273 8.273 0 01-2.3-4.42 8.396 8.396 0 00-2.94 0m9.661 6.722a8.274 8.274 0 01-4.42-2.302 5.339 5.339 0 010 7.542 5.339 5.339 0 01-7.543 0 5.338 5.338 0 010-7.542 8.274 8.274 0 01-4.42 2.302 8.321 8.321 0 002.301 7.36c3.248 3.247 8.533 3.248 11.78 0a8.321 8.321 0 002.302-7.36" fill="#A42222"/>
  <path d="M87.152 19.458a8.274 8.274 0 002.302 4.42 8.272 8.272 0 004.42 2.301 8.272 8.272 0 00-2.301-4.42 8.278 8.278 0 00-4.42-2.301" fill="#690505"/>
  <path d="M91.573 2.436c-3.248-3.248-8.533-3.248-11.78 0a1.499 1.499 0 002.118 2.12 5.338 5.338 0 017.542 0 5.338 5.338 0 010 7.541 8.28 8.28 0 014.421-2.3 8.324 8.324 0 00-2.3-7.361m-4.422 14.082a8.276 8.276 0 012.302-4.42 5.34 5.34 0 01-7.542 0 8.277 8.277 0 012.3 4.42 8.396 8.396 0 002.94 0M72.25 21.759a5.34 5.34 0 010-7.542 1.499 1.499 0 00-2.12-2.12c-3.247 3.248-3.247 8.533 0 11.781 2 2 4.769 2.763 7.36 2.301a8.276 8.276 0 012.302-4.42 5.34 5.34 0 01-7.542 0" fill="#61879F"/>
  <path d="M84.213 16.518a8.276 8.276 0 01-4.42-2.301 5.34 5.34 0 010 7.542 8.277 8.277 0 014.42-2.301 8.396 8.396 0 000-2.94" fill="#61879F"/>
  <path d="M91.573 14.217a8.284 8.284 0 002.301-4.42 8.279 8.279 0 00-6.721 6.721 8.282 8.282 0 004.42-2.301m-7.36 5.241a8.278 8.278 0 00-4.42 2.301 8.272 8.272 0 00-2.302 4.42 8.272 8.272 0 004.42-2.3 8.278 8.278 0 002.302-4.421" fill="#3E1215"/>
  <path d="M81.912 12.097a1.5 1.5 0 00-2.12 2.12 8.277 8.277 0 004.42 2.3 8.284 8.284 0 00-2.3-4.42" fill="#254763"/>
</svg>